name N:\Shared_Data\HIL\Data Collection\CoPD-X-MoreData\processed\iteration012\grf0012.mot
datacolumns 19
datarows 28
range 2324.692817 2324.73782
endheader
time	ground_force1_vx	ground_force1_vy	ground_force1_vz	ground_force1_px	ground_force1_py	ground_force1_pz	ground_force2_vx	ground_force2_vy	ground_force2_vz	ground_force2_px	ground_force2_py	ground_force2_pz	ground_torque1_x	ground_torque1_y	ground_torque1_z	ground_torque2_x	ground_torque2_y	ground_torque2_z	
2324.692817	-46.71772928	749.13708	55.29485555	6.998453273	0	0.1621966224	-8.57285255	32.00954649	8.697753183	7.269831956	0	-0.03507962428	0	12.28308416	0	0	3.050822314	0	
2324.694483	-46.83125361	746.8905478	55.15350204	6.999352084	0	0.1621756915	-8.836798611	36.12536924	9.270666204	7.271169959	0	-0.03507962428	0	12.25957996	0	0	3.313157263	0	
2324.69615	-46.94924998	744.5776769	54.99165863	7.000251024	0	0.1621517594	-9.000165861	40.39262535	9.789038673	7.272507963	0	-0.03507962428	0	12.24018117	0	0	3.564289626	0	
2324.697816	-47.07233905	742.1976582	54.80892943	7.001150118	0	0.1621247757	-9.069037947	44.80840787	10.25544719	7.273845966	0	-0.03507962428	0	12.22520078	0	0	3.803975681	0	
2324.699482	-47.20111632	739.7495924	54.60495165	7.002049424	0	0.1620946939	-9.051695155	49.37409622	10.67432651	7.27518397	0	-0.03507962428	0	12.21494113	0	0	4.032571636	0	
2324.701145	-47.33614883	737.232488	54.37939707	7.002949027	0	0.1620614717	-8.957596948	54.09452643	11.05125113	7.276521973	0	-0.03507962428	0	12.20969239	0	0	4.250856654	0	
2324.702814	-47.47797175	734.6452592	54.13197351	7.003849045	0	0.1620250711	-8.796444497	58.97702307	11.39224846	7.277859977	0	-0.03507962428	0	12.20973099	0	0	4.459853506	0	
2324.70448	-47.62708507	731.9867251	53.86242616	7.00474962	0	0.1619854587	-8.577384851	64.03039387	11.70319329	7.27919798	0	-0.03507962428	0	12.21531803	0	0	4.660661663	0	
2324.706151	-47.78395026	729.2556085	53.57053893	7.005650923	0	0.1619426057	-8.308395257	69.26397157	11.98931742	7.280535984	0	-0.03507962428	0	12.2266977	0	0	4.854313868	0	
2324.707812	-47.9489869	726.4505367	53.25613563	7.006553153	0	0.1618964882	-7.995864364	74.68676796	12.25485247	7.281873987	0	-0.03507962428	0	12.24409565	0	0	5.041663242	0	
2324.709486	-48.12256948	723.5700409	52.91908113	7.00745653	0	0.1618470872	-7.644368112	80.30678381	12.50281007	7.283211991	0	-0.03507962428	0	12.26771739	0	0	5.223304217	0	
2324.711145	-48.30502412	720.6125583	52.55928241	7.0083613	0	0.1617943891	-7.256623072	86.13049781	12.73489173	7.284549994	0	-0.03507962428	0	12.29774668	0	0	5.399527314	0	
2324.712814	-48.49662542	717.5764332	52.17668954	7.009267725	0	0.1617383852	-6.833589218	92.16253966	12.95151218	7.285887998	0	-0.03507962428	0	12.33434399	0	0	5.57030512	0	
2324.714481	-48.69759341	714.4599198	51.77129649	7.010176091	0	0.1616790726	-6.374687723	98.4055369	13.15191393	7.287226001	0	-0.03507962428	0	12.37764487	0	0	5.735304914	0	
2324.716151	-48.90809051	711.2611847	51.34314193	7.011086694	0	0.1616164535	-5.878096857	104.8601141	13.33434819	7.288564005	0	-0.03507962428	0	12.42775853	0	0	5.893922183	0	
2324.717811	-49.12821873	707.9783113	50.89230985	7.011999847	0	0.1615505359	-5.341089991	111.5250157	13.49629672	7.289902008	0	-0.03507962428	0	12.48476633	0	0	6.045328778	0	
2324.719484	-49.35801689	704.6093034	50.41893006	7.012915873	0	0.1614813334	-4.760383251	118.3973189	13.63471087	7.291240012	0	-0.03507962428	0	12.5487204	0	0	6.188529508	0	
2324.721152	-49.59745808	701.1520906	49.92317863	7.0138351	0	0.1614088653	-4.132465733	125.4727045	13.74624726	7.292578015	0	-0.03507962428	0	12.61964237	0	0	6.322421554	0	
2324.722819	-49.84644724	697.6045339	49.40527809	7.014757863	0	0.1613331567	-3.453891628	132.745754	13.82748391	7.293916019	0	-0.03507962428	0	12.69752216	0	0	6.445851905	0	
2324.724484	-50.10481899	693.9644318	48.8654976	7.015684495	0	0.1612542385	-2.721520375	140.2102457	13.87510486	7.295254022	0	-0.03507962428	0	12.78231689	0	0	6.557669113	0	
2324.726145	-50.37233565	690.2295273	48.30415293	7.016615331	0	0.161172147	-1.932697492	147.8594292	13.88604621	7.296592026	0	-0.03507962428	0	12.87394992	0	0	6.656766804	0	
2324.727814	-50.6486855	686.3975155	47.72160621	7.017550698	0	0.1610869247	-1.085374567	155.6862616	13.8576008	7.297930029	0	-0.03507962428	0	12.97231006	0	0	6.742117484	0	
2324.729487	-50.93348134	682.4660518	47.11826572	7.018490914	0	0.1609986196	-0.1781716886	163.6835965	13.78748213	7.299268033	0	-0.03507962428	0	13.07725086	0	0	6.812796198	0	
2324.731145	-51.2262593	678.4327604	46.49458531	7.019436288	0	0.1609072851	0.7896107773	171.8443214	13.67385132	7.300606036	0	-0.03507962428	0	13.18859015	0	0	6.867994442	0	
2324.732827	-51.52647799	674.2952438	45.85106379	7.020387112	0	0.1608129805	1.818021759	180.1614444	13.51531264	7.30194404	0	-0.03507962428	0	13.30610968	0	0	6.907025361	0	
2324.734484	-51.83351793	670.0510928	45.18824413	7.02134366	0	0.1607157703	2.906519887	188.6281344	13.3108847	7.303282043	0	-0.03507962428	0	13.42955497	0	0	6.92932173	0	
2324.736152	-52.1466814	665.6978966	44.50671251	7.022306187	0	0.1606157244	4.054054035	197.2377221	13.05995449	7.304620047	0	-0.03507962428	0	13.55863536	0	0	6.93442843	0	
2324.73782	-52.46519256	661.2332543	43.80709715	7.023274923	0	0.1605129179	5.259153958	205.9836706	12.76222137	7.305958051	0	-0.03507962428	0	13.69302418	0	0	6.921991213	0	
